<?xml version="1.0" encoding="UTF-8" standalone="no"?><!DOCTYPE svg PUBLIC "-//W3C//DTD SVG 1.1//EN" "http://www.w3.org/Graphics/SVG/1.1/DTD/svg11.dtd"><svg width="100%" height="100%" viewBox="0 0 550 550" version="1.1" xmlns="http://www.w3.org/2000/svg" xmlns:xlink="http://www.w3.org/1999/xlink" xml:space="preserve" xmlns:serif="http://www.serif.com/" style="fill-rule:evenodd;clip-rule:evenodd;stroke-linejoin:round;stroke-miterlimit:1.41421;"><rect id="Artboard1" x="0" y="0" width="550" height="550" style="fill:none;"/><g><ellipse cx="275" cy="275" rx="221.101" ry="220.114" style="fill:#fff;"/><g><path d="M309.439,110.031l-34.439,-14.026l-34.439,13.776l0,399.498l68.878,0l0,-399.248Z" style="fill:#4b853d;"/><path d="M226.785,206.212l-41.328,-27.552l0,220.413l41.328,0l0,-192.861Z" style="fill:#4b853d;"/><path d="M364.543,247.539l-41.328,27.552l0,151.533l41.328,0l0,-179.085Z" style="fill:#4b853d;"/></g><path d="M276.095,27.127c76.688,0.365 152.024,37.959 198.314,100.227c53.392,71.821 63.917,173.197 24.375,255.211c-33.444,69.365 -100.532,121.461 -176.586,136.049c-77.357,14.838 -161.234,-9.66 -218.49,-64.578c-47.925,-45.968 -76.378,-111.589 -76.378,-178.946c0,-81.059 42.161,-160.765 110.591,-206.416c40.193,-26.813 88.071,-41.316 136.573,-41.547c0.534,-0.001 1.068,-0.001 1.601,0Zm-1.514,27.551c-66.817,0.319 -133.046,32.684 -174.293,86.47c-49.025,63.927 -59.394,155.346 -23.665,229.452c29.706,61.612 89.415,108 156.958,120.956c68.783,13.193 143.267,-8.523 194.228,-57.403c60.145,-57.689 83.762,-151.107 55.654,-231.637c-29.566,-84.71 -114.062,-147.393 -207.455,-147.838c-0.476,0 -0.951,0 -1.427,0Z" style="fill:#0d3e77;fill-rule:nonzero;"/></g></svg>